<?xml version="1.0" standalone="no"?>
<!DOCTYPE svg PUBLIC "-//W3C//DTD SVG 20010904//EN"
 "http://www.w3.org/TR/2001/REC-SVG-20010904/DTD/svg10.dtd">
<svg version="1.0" xmlns="http://www.w3.org/2000/svg"
 width="960.000000pt" height="1280.000000pt" viewBox="0 0 960.000000 1280.000000"
 preserveAspectRatio="xMidYMid meet">

<g transform="translate(0.000000,1280.000000) scale(0.100000,-0.100000)"
fill="#000000" stroke="none">
<path d="M1235 9730 c-16 -5 -53 -16 -81 -23 -55 -16 -154 -66 -154 -79 0 -18
42 -29 71 -19 40 14 187 8 224 -9 17 -7 50 -12 75 -12 24 1 69 -5 100 -14 30
-9 79 -22 107 -30 48 -12 129 -51 221 -103 101 -58 232 -191 369 -376 49 -64
177 -308 208 -394 7 -20 26 -66 43 -102 26 -58 69 -190 88 -274 3 -16 9 -84
11 -150 6 -164 -9 -199 -157 -355 -28 -30 -68 -75 -88 -100 -20 -25 -43 -49
-50 -53 -6 -4 -19 -20 -27 -35 -8 -15 -36 -51 -63 -81 -27 -30 -60 -75 -73
-100 -13 -25 -50 -89 -81 -144 -32 -54 -58 -101 -58 -103 0 -2 -23 -53 -51
-112 -28 -59 -59 -128 -69 -155 -9 -26 -20 -50 -23 -54 -4 -3 -7 -14 -7 -23 0
-9 -7 -31 -16 -49 -32 -65 -105 -353 -135 -536 -33 -201 -38 -430 -14 -695 14
-153 69 -433 97 -487 6 -12 8 -36 4 -53 -3 -18 -1 -41 6 -53 7 -12 13 -31 15
-42 2 -10 7 -22 12 -25 4 -3 14 -23 21 -45 7 -22 16 -44 20 -50 5 -5 9 -13 9
-18 0 -4 8 -23 16 -43 8 -20 15 -43 15 -50 0 -19 50 -114 60 -114 8 0 23 -38
21 -53 -1 -4 3 -7 8 -7 5 0 19 -21 31 -48 12 -26 34 -63 48 -82 15 -19 27 -40
28 -46 1 -7 26 -47 55 -89 30 -43 59 -85 64 -94 6 -9 17 -23 25 -31 8 -8 35
-41 59 -74 63 -85 66 -89 174 -197 69 -70 103 -97 115 -93 14 5 15 4 2 -5 -18
-13 15 -47 165 -167 86 -69 277 -204 290 -204 2 0 31 -16 64 -35 32 -19 66
-35 74 -35 9 0 17 -4 19 -9 8 -24 402 -188 543 -227 293 -79 464 -104 770
-111 196 -4 252 -2 380 16 174 23 177 24 315 57 147 36 185 48 360 116 255 99
475 217 660 353 30 22 60 42 66 45 15 7 84 66 217 186 202 183 359 374 504
614 110 184 263 517 247 542 -4 7 -3 8 4 4 7 -4 14 7 18 31 4 21 10 45 15 54
17 34 72 252 83 334 2 11 8 45 14 75 11 54 25 176 38 338 7 89 -4 394 -15 388
-3 -2 -7 26 -7 63 -3 115 -21 234 -37 246 -9 6 -19 23 -22 38 -6 21 -10 25
-24 17 -23 -12 -43 2 -35 24 4 11 14 16 26 12 18 -4 19 -1 13 32 -6 39 -38
155 -56 207 -6 17 -24 69 -41 118 -17 48 -34 87 -39 87 -5 0 -9 7 -9 16 0 23
-59 144 -71 144 -5 0 -8 3 -8 8 5 27 -6 53 -40 99 -22 28 -37 54 -34 57 4 3 1
6 -5 6 -7 0 -12 8 -12 19 0 10 -7 24 -15 31 -8 7 -15 18 -15 24 0 6 -16 31
-35 55 -19 24 -35 48 -35 52 0 12 -38 49 -50 49 -5 0 -7 6 -5 13 6 16 -110
163 -236 298 -57 61 -107 120 -112 131 -15 41 -19 164 -8 242 9 65 24 104 86
230 85 172 216 401 281 493 95 133 262 288 426 396 82 53 321 164 408 188 25
7 51 17 57 22 16 12 288 -8 308 -22 6 -4 28 -13 51 -20 32 -10 46 -11 63 -1
22 11 20 13 -43 55 -94 61 -200 110 -307 141 -86 25 -107 27 -252 25 -273 -3
-411 -44 -648 -191 -79 -48 -162 -99 -184 -112 -76 -45 -201 -131 -270 -187
-38 -31 -119 -96 -180 -145 -131 -105 -176 -147 -363 -340 -153 -157 -199
-189 -295 -202 -40 -6 -64 0 -169 39 -68 25 -150 53 -183 62 -33 9 -73 20 -90
25 -55 16 -288 49 -420 60 -152 12 -415 11 -530 -2 -44 -5 -87 -9 -95 -10 -74
-3 -425 -90 -552 -137 l-58 -21 -51 27 c-76 41 -121 84 -186 176 -32 45 -60
86 -62 92 -9 22 -99 145 -163 221 -66 79 -154 164 -170 164 -4 0 -8 4 -8 10 0
13 -32 50 -43 50 -5 0 -34 22 -65 49 -75 64 -189 139 -281 186 -145 73 -401
162 -556 194 -66 13 -611 23 -650 11z m6020 -214 c-199 -97 -485 -350 -617
-548 -68 -102 -148 -233 -148 -243 0 -2 -15 -30 -34 -62 -72 -124 -135 -254
-184 -379 -29 -73 -52 -137 -52 -143 0 -15 -48 10 -73 37 -19 20 -17 24 68
199 49 98 96 190 107 205 10 15 25 46 34 70 8 23 37 75 64 115 28 39 50 76 50
81 0 5 6 15 14 21 8 7 22 29 32 49 9 20 34 60 54 87 41 55 58 95 40 95 -18 0
-53 -21 -75 -45 -11 -12 -36 -30 -55 -41 -33 -18 -64 -44 -194 -164 -105 -96
-208 -204 -234 -245 -14 -22 -28 -42 -31 -45 -3 -3 -26 -32 -51 -65 -61 -82
-100 -128 -118 -139 -9 -5 -12 -5 -8 2 3 5 -3 12 -14 15 -24 6 -25 31 -2 75
10 18 98 116 195 217 135 140 224 221 370 337 259 207 322 251 487 341 30 17
69 40 85 52 71 51 157 96 240 124 118 40 136 39 50 -3z m-5134 -40 c190 -77
370 -193 482 -309 15 -16 27 -25 27 -19 0 10 -49 57 -104 100 -16 12 -27 24
-24 27 7 7 136 -105 231 -199 43 -43 111 -126 153 -184 41 -59 84 -118 95
-132 31 -39 69 -100 69 -110 0 -6 8 -18 18 -28 16 -18 37 -52 69 -114 8 -16
18 -28 23 -28 4 0 10 -11 13 -25 3 -18 -2 -30 -17 -40 -11 -8 -23 -15 -27 -15
-4 0 -26 39 -50 88 -27 53 -73 122 -120 177 -41 50 -87 109 -102 131 -14 23
-37 55 -51 70 -141 157 -166 188 -166 203 0 6 -4 11 -8 11 -5 0 -44 35 -88 79
-84 83 -114 101 -133 77 -9 -11 -7 -22 10 -52 13 -22 28 -46 35 -54 6 -8 32
-54 57 -102 25 -48 52 -95 61 -104 10 -9 20 -29 23 -45 3 -16 10 -26 16 -22 5
3 7 1 3 -5 -3 -5 5 -23 18 -39 14 -16 38 -54 53 -84 16 -30 41 -73 56 -97 16
-24 53 -118 83 -210 l56 -166 -34 -28 c-18 -15 -36 -28 -40 -28 -7 0 -32 73
-42 125 -14 64 -81 286 -94 311 -6 11 -38 75 -72 144 -93 187 -186 332 -308
479 -62 76 -99 111 -200 192 -40 33 -69 59 -64 59 5 0 47 -15 93 -34z m2570
-1217 c35 -92 119 -96 165 -7 8 16 22 28 32 28 25 0 385 -90 397 -100 6 -4 54
-23 108 -41 54 -19 107 -42 117 -51 10 -9 20 -15 23 -12 5 5 38 -11 152 -74
70 -39 99 -56 105 -62 3 -3 17 -13 31 -22 25 -16 26 -20 22 -90 -6 -90 6 -110
63 -111 64 -1 66 -4 63 -161 -2 -151 3 -176 45 -216 21 -19 29 -21 35 -11 5 7
11 12 15 12 18 -3 23 1 39 28 11 18 17 50 17 85 0 65 12 71 52 26 34 -39 88
-42 119 -6 l22 25 64 -86 c61 -81 64 -87 53 -114 -8 -19 -10 -50 -6 -88 4 -32
2 -108 -4 -169 -12 -128 -3 -185 36 -227 18 -20 30 -25 47 -19 42 13 57 34 57
85 0 26 4 59 10 74 8 21 14 24 35 19 14 -4 32 -1 40 6 12 10 22 -3 60 -81 25
-52 45 -102 45 -111 0 -10 4 -18 8 -18 5 0 17 -28 28 -62 10 -35 24 -74 31
-88 7 -14 13 -32 13 -41 0 -9 6 -32 14 -50 8 -19 17 -59 20 -89 4 -30 11 -77
16 -105 44 -235 53 -303 56 -430 5 -260 -19 -469 -75 -660 -12 -38 -28 -99
-37 -135 -31 -122 -159 -425 -191 -452 -7 -6 -13 -17 -13 -25 0 -16 -39 -76
-52 -81 -4 -2 -8 -10 -8 -18 0 -8 -4 -14 -9 -14 -5 0 -12 -11 -15 -25 -4 -14
-15 -34 -26 -45 -10 -10 -27 -31 -36 -47 -43 -67 -79 -105 -119 -123 -31 -14
-61 -43 -108 -102 -71 -91 -132 -151 -247 -243 -80 -65 -250 -185 -261 -185
-4 0 -38 -17 -76 -39 -127 -72 -226 -123 -247 -127 -12 -2 -30 -8 -41 -13
-200 -93 -449 -155 -730 -182 -107 -11 -401 -6 -437 6 -11 4 -33 7 -133 19
-138 18 -425 100 -570 163 -61 27 -263 126 -300 147 -114 65 -149 87 -205 130
-94 73 -214 179 -301 265 -91 92 -199 215 -199 228 0 6 -9 18 -19 27 -11 10
-27 33 -36 52 -9 19 -20 34 -25 34 -5 0 -17 15 -26 33 -9 17 -20 34 -23 37
-10 8 -29 41 -51 90 -11 24 -26 48 -33 52 -7 4 -12 11 -12 15 0 4 -14 37 -32
73 -52 109 -89 193 -108 245 -9 28 -21 59 -26 70 -11 24 -35 116 -56 205 -14
63 -18 97 -28 225 -3 33 -10 83 -15 110 -13 61 -19 304 -10 397 4 44 2 68 -5
68 -6 0 -5 3 2 8 6 4 14 34 17 67 17 158 87 440 138 551 10 22 18 44 18 48 0
11 111 243 151 316 36 65 104 170 111 170 4 0 12 -17 19 -39 9 -31 8 -48 -4
-87 -30 -93 -24 -135 24 -160 64 -32 118 24 127 133 3 36 0 58 -9 70 -10 12
-11 15 -1 9 10 -6 11 -1 6 19 -7 29 -9 121 -2 146 2 9 16 33 31 52 15 20 27
40 27 46 0 6 5 11 10 11 6 0 16 12 22 26 10 21 9 27 -3 35 -11 7 -11 9 4 9 12
0 20 10 24 31 4 20 30 57 69 98 l64 66 -2 -62 c-1 -49 3 -67 18 -84 26 -30 61
-41 85 -29 22 12 59 88 59 122 0 13 9 48 20 78 11 30 20 62 20 72 0 9 11 30
25 46 14 17 25 35 25 41 0 10 50 41 66 41 3 0 4 -14 0 -31 -3 -18 -1 -38 5
-45 13 -16 33 -19 24 -4 -3 6 1 7 10 4 24 -10 50 21 74 86 26 71 58 103 137
137 206 88 241 101 394 148 83 24 217 47 233 38 4 -2 7 -13 7 -23 0 -25 42
-52 72 -48 13 2 32 11 42 21 23 20 57 22 74 5 7 -7 12 -42 12 -86 0 -84 20
-138 57 -155 19 -9 27 -6 49 14 36 33 50 64 63 133 14 78 31 96 92 96 43 0 53
4 94 44 25 24 53 43 63 42 10 -2 24 -21 33 -47z m-1736 -668 c-8 -17 -20 -31
-24 -31 -5 0 0 18 12 40 25 45 36 37 12 -9z m3289 -121 c-6 -6 -10 -2 -11 12
-2 16 1 18 10 9 7 -7 8 -14 1 -21z m-206 -115 c-3 -3 -9 2 -12 12 -6 14 -5 15
5 6 7 -7 10 -15 7 -18z m-3533 -375 c3 -6 -1 -7 -9 -4 -18 7 -21 14 -7 14 6 0
13 -4 16 -10z"/>
<path d="M2679 9096 c27 -29 33 -32 25 -13 -2 7 -14 19 -27 26 -21 13 -21 12
2 -13z"/>
<path d="M2820 8941 c0 -6 4 -13 10 -16 6 -3 7 1 4 9 -7 18 -14 21 -14 7z"/>
<path d="M2920 8786 c0 -2 8 -10 18 -17 15 -13 16 -12 3 4 -13 16 -21 21 -21
13z"/>
<path d="M2970 8725 c0 -10 40 -75 47 -75 2 0 -6 17 -18 38 -28 45 -29 47 -29
37z"/>
<path d="M3050 8591 c0 -5 7 -15 17 -22 15 -13 15 -12 4 9 -12 23 -21 28 -21
13z"/>
<path d="M3330 7190 c0 -24 35 -44 153 -85 67 -23 136 -48 152 -55 17 -7 39
-16 50 -21 20 -8 174 -79 255 -118 47 -22 120 -69 286 -182 23 -16 43 -26 46
-24 3 3 13 -4 23 -15 10 -11 13 -20 7 -20 -6 0 -17 -6 -24 -12 -7 -7 -47 -42
-88 -78 -41 -36 -78 -70 -83 -77 -4 -7 -13 -18 -20 -25 -37 -37 -157 -210
-181 -260 -16 -31 -34 -62 -41 -68 -12 -10 -33 -58 -96 -227 -13 -35 -27 -63
-30 -63 -4 0 -10 -26 -14 -57 -3 -32 -11 -75 -17 -95 -6 -20 -8 -44 -4 -54 6
-16 8 -16 26 1 11 10 20 25 20 33 0 7 13 26 28 40 16 15 42 50 57 77 16 28 66
95 110 150 44 55 107 137 139 183 59 84 223 257 328 345 l57 48 34 -23 c128
-86 307 -259 474 -458 6 -8 27 -33 46 -55 18 -22 49 -62 67 -90 18 -27 44 -62
56 -77 12 -15 36 -57 53 -93 18 -37 37 -65 46 -65 8 0 15 3 15 8 0 12 -41 145
-61 192 -10 25 -23 62 -29 82 -17 56 -113 239 -203 386 -81 134 -184 246 -287
313 l-24 16 60 43 c32 24 66 49 74 57 33 31 240 143 263 143 9 0 67 24 99 41
10 5 28 9 40 9 13 0 46 12 73 25 28 14 58 25 67 25 9 0 29 11 45 24 16 14 43
28 59 32 40 9 86 33 80 42 -2 4 11 7 30 8 19 0 39 5 45 11 10 10 8 11 -46 17
-16 2 -52 6 -80 10 -69 9 -189 -5 -390 -46 -163 -33 -388 -133 -510 -227 l-60
-47 -40 21 c-22 12 -69 37 -105 56 -83 44 -162 77 -325 133 -220 75 -328 107
-342 102 -7 -3 -13 -2 -13 3 0 11 -101 29 -200 36 -41 3 -92 8 -112 11 -26 4
-38 2 -38 -6z m1020 -310 c0 -5 -2 -10 -4 -10 -3 0 -8 5 -11 10 -3 6 -1 10 4
10 6 0 11 -4 11 -10z m50 -14 c0 -11 -19 -15 -25 -6 -3 5 1 10 9 10 9 0 16 -2
16 -4z m350 -75 c0 -5 -7 -12 -16 -15 -14 -5 -15 -4 -4 9 14 17 20 19 20 6z
m-210 -60 c39 -40 46 -81 13 -81 -8 0 -27 -13 -41 -28 -33 -35 -62 -47 -62
-27 0 8 -3 15 -7 15 -5 0 -24 14 -43 30 l-35 29 30 32 c30 32 83 69 99 69 4 0
25 -18 46 -39z m87 -93 c-3 -8 -6 -5 -6 6 -1 11 2 17 5 13 3 -3 4 -12 1 -19z
m262 -373 c6 3 8 0 5 -8 -3 -8 -1 -18 5 -22 22 -13 10 -23 -13 -12 -14 7 -23
14 -21 16 3 2 -1 13 -7 25 -10 19 -10 20 5 8 9 -8 21 -11 26 -7z m-979 -254
c-12 -24 -30 -36 -30 -22 0 6 5 11 10 11 6 0 10 7 10 15 0 8 5 15 10 15 7 0 7
-6 0 -19z"/>
<path d="M2619 5823 c0 -10 -3 -46 -5 -80 -5 -71 10 -136 81 -343 76 -220 197
-445 234 -433 13 4 13 3 2 -5 -12 -9 -10 -17 13 -51 16 -22 30 -58 32 -83 9
-75 14 -87 50 -120 30 -28 35 -38 33 -73 -5 -81 1 -114 24 -141 21 -24 25 -25
45 -13 12 7 26 26 32 42 9 27 11 28 31 13 19 -13 26 -13 49 -1 26 13 29 12 72
-33 40 -41 45 -51 41 -80 -3 -18 0 -60 7 -94 6 -34 13 -83 15 -110 5 -66 13
-86 36 -99 15 -8 26 -7 43 5 19 12 24 26 28 76 3 45 10 66 26 83 l22 21 0 -22
c0 -28 24 -38 54 -23 19 11 29 8 72 -16 212 -124 452 -217 654 -254 105 -19
330 -14 430 10 47 11 106 23 132 26 26 2 57 9 70 14 13 4 48 16 78 24 30 9 86
26 123 38 38 11 70 19 72 18 1 -2 5 -29 8 -60 6 -70 31 -113 57 -99 33 18 60
62 60 97 0 43 30 78 61 70 28 -7 79 44 79 79 0 32 26 53 141 115 54 29 99 56
99 60 0 4 13 15 29 26 98 62 269 253 349 389 13 21 39 66 59 99 59 99 89 158
103 200 7 22 16 45 20 50 4 6 11 29 15 53 4 23 15 65 25 92 10 28 14 48 9 44
-5 -3 -9 2 -9 10 0 9 5 15 11 13 6 -1 14 4 16 11 3 6 -1 12 -7 12 -7 0 0 14
14 31 14 17 28 43 31 57 3 15 14 63 25 106 10 44 17 83 14 88 -15 23 -36 -2
-86 -99 -102 -201 -140 -268 -172 -303 -18 -19 -40 -46 -50 -60 -16 -25 -131
-150 -256 -278 -57 -59 -335 -259 -388 -280 -9 -3 -35 -19 -58 -34 -55 -37
-98 -54 -309 -126 -189 -65 -338 -102 -492 -123 -80 -11 -104 -10 -200 6 -59
10 -115 19 -123 20 -8 1 -22 5 -30 8 -24 10 -204 51 -212 49 -5 -1 -8 2 -8 7
0 5 -14 12 -31 16 -17 4 -62 22 -100 41 -37 19 -70 34 -72 34 -3 0 -44 22 -93
50 -49 27 -95 50 -102 50 -7 0 -51 26 -98 58 -48 31 -103 68 -123 81 -20 13
-61 51 -91 84 -86 95 -154 164 -165 168 -5 2 -49 54 -97 114 -48 61 -94 117
-101 125 -8 8 -29 38 -47 65 -19 28 -36 52 -40 55 -13 11 -70 111 -91 161 -12
30 -30 65 -40 79 -9 14 -27 57 -40 95 -33 104 -40 115 -66 115 -15 0 -23 -6
-24 -17z m3701 -507 c0 -2 -8 -10 -17 -17 -16 -13 -17 -12 -4 4 13 16 21 21
21 13z m-53 -108 c-3 -8 -6 -5 -6 6 -1 11 2 17 5 13 3 -3 4 -12 1 -19z m-2967
-353 c0 -12 -19 -12 -23 0 -4 9 -1 12 9 8 7 -3 14 -7 14 -8z m161 -132 l24
-26 -27 19 c-15 10 -28 22 -28 27 0 12 5 8 31 -20z m59 -43 c0 -5 9 -12 21
-15 11 -4 18 -9 15 -12 -6 -6 -66 29 -66 39 0 4 7 5 15 2 8 -4 15 -10 15 -14z
m100 -80 c12 -8 13 -11 2 -22 -11 -11 -13 -10 -10 2 2 9 -4 14 -14 14 -10 -1
-15 2 -12 7 7 11 15 11 34 -1z"/>
</g>
</svg>
